#N canvas 0 0 1366 702 10;
#X obj 807 355 output~;
#X msg 807 416 start;
#X msg 844 416 stop;
#X obj 807 434 writesf~ 2;
#X floatatom 147 398 5 0 0 0 - - -;
#X obj 508 446 vline~;
#X obj 562 492 *~;
#X floatatom 471 117 5 0 0 0 - - -;
#X obj 62 20 f;
#X obj 103 -42 loadbang;
#X obj 43 267 line;
#X obj 88 -12 metro 127;
#X obj 286 198 line;
#X obj 231 -51 f;
#X obj 283 -57 + 1;
#X obj 224 -80 metro 127;
#X obj 515 415 del 14;
#X obj 230 -27 mod 7;
#X msg 313 -58 7;
#X msg 351 -55 8;
#X obj 61 47 mod 4;
#X msg 131 -71 6;
#X msg 403 -51 6;
#X obj 138 428 phasor~;
#X obj 546 58 phasor~;
#X msg 180 -43 2;
#X msg 611 458 0;
#X msg 410 -31 5;
#X msg 365 -33 4;
#X msg 264 314 stop;
#X obj 99 23 + 1;
#X floatatom 615 369 5 0 0 0 - - -;
#X obj 337 135 / 1;
#X msg 175 -15 3;
#X msg 161 6 1;
#X floatatom 678 553 5 0 0 1 res - -;
#X msg 461 -48 2;
#X msg 178 -66 5;
#X obj 244 369 vline~;
#X obj 483 483 *~;
#X obj 164 317 del 14;
#X floatatom 502 24 5 0 0 0 - - -;
#X msg 139 36 -1;
#X msg 163 54 1;
#X obj 452 488 +~;
#X obj 612 347 line;
#X msg 543 -77 1;
#X msg 572 -77 -1;
#X obj 621 61 delwrite~ a 333;
#X obj 621 98 delread~ a;
#X floatatom 621 82 5 0 0 0 - - -;
#X msg 451 -26 3;
#X floatatom 665 395 5 0 0 0 - - -;
#X obj 618 306 / 437;
#X obj 483 500 *~ 1;
#N canvas 0 0 450 300 (subpatch) 0;
#X array osc2 131 float 1;
#A 0 0.977181 0.491224 0.738938 0.738938 0.766 0.793061 0.820122 0.847183
0.126938 0.330938 0.534938 0.928367 -0.55209 -0.546262 -0.540433 -0.534605
-0.528776 -0.496395 -0.464014 -0.431633 -0.399252 -0.366871 -0.33449
-0.302109 -0.269728 -0.237347 -0.183919 -0.13049 -0.0770616 -0.0236331
0.0297955 0.0832241 0.136653 0.190081 0.24351 0.278481 0.313453 0.348424
0.383395 0.418367 0.451993 0.48562 0.519246 0.552872 0.586499 0.620125
0.653752 0.687378 0.721004 0.754631 0.788257 0.821883 0.85551 0.768081
0.636938 0.505795 0.374653 0.365545 0.356438 0.347331 0.338224 0.329117
0.32001 0.310903 0.301795 0.292688 0.283581 0.274474 0.265367 0.25626
0.247153 0.238045 0.228938 0.0540811 -0.018776 -0.0916331 -0.16449
-0.237347 -0.310205 -0.383062 -0.455919 -0.528776 -0.601633 -0.67449
-0.747347 -0.578735 -0.453837 -0.328939 -0.204041 -0.0791433 0.0457546
0.170653 0.483938 0.476653 0.469367 0.462081 0.408653 0.355224 0.301795
0.248367 0.194938 0.14151 0.0880812 0.0346526 -0.018776 -0.0513474
-0.0839189 -0.11649 -0.149062 -0.181633 -0.214205 -0.246776 -0.279347
-0.311919 -0.34449 -0.377062 -0.409633 -0.442205 -0.474776 -0.507347
-0.539919 -0.57249 0.788481 0.783381 0.778281 0.773181 0.768081 0.762981
0.757881 0.752781 0.747681;
#X coords 0 1.02 131 -1.02 259 140 1;
#X restore 977 -39 graph;
#X obj 584 12 tabread4~ osc2;
#X obj 602 -36 *~;
#X obj 590 -12 +~ 1;
#X floatatom 695 -45 5 0 0 0 - - -;
#X obj 686 0 line~;
#X obj 254 538 tabread4~ osc2;
#X obj 171 542 *~;
#X obj 165 566 +~ 1;
#X obj 88 513 line~;
#X obj 653 -50 line;
#X obj 630 389 * 29;
#X floatatom 88 436 5 0 0 0 - - -;
#X obj 46 431 line;
#X obj 19 416 pack 0 20;
#X obj 626 -65 pack 0 20;
#X obj 16 243 pack 0 50;
#X obj 216 176 pack 0 50;
#X obj 91 416 pipe 1;
#X obj 618 326 pack 0 20;
#X obj 562 465 +~;
#X obj 692 -27 pack 0 22;
#X obj 79 491 pack 0 22;
#X obj 689 21 +~ 18;
#X obj 131 519 +~ 18;
#X obj 678 502 * 5;
#X obj 553 171 / 22;
#X obj 176 289 / 22;
#X obj 119 228 +;
#X obj 698 -65 pipe 10;
#X obj 662 -24 * 0.1;
#X obj 55 457 * 0.14;
#X obj 143 252 * 4;
#X msg 357 210 0 21;
#X msg 166 346 0 21;
#X obj 38 338 + 111;
#X obj 696 341 / 2;
#X obj 686 371 pipe 1;
#X obj 188 201 * 6;
#X obj 478 -3 * 22;
#X obj 561 509 *~ 1.6;
#X obj 139 373 * 3;
#X obj 385 69 * 3;
#X obj 995 197 key;
#X obj 1037 316 bng 15 250 50 0 empty empty empty 17 7 0 10 -262144
-1 -1;
#X obj 1052 316 bng 15 250 50 0 empty empty empty 17 7 0 10 -262144
-1 -1;
#X obj 1067 316 bng 15 250 50 0 empty empty empty 17 7 0 10 -262144
-1 -1;
#X obj 1082 316 bng 15 250 50 0 empty empty empty 17 7 0 10 -262144
-1 -1;
#X obj 227 0 sel 0 1 2 3 4 5 6 7 8;
#X obj 77 77 sel 0 1 2 3 4 5 6 7 8;
#X obj 256 87 * 1.3;
#X obj 296 116 + 1;
#X msg 366 29 35;
#X msg 473 410 1 11;
#X msg 211 337 1 11;
#X obj 377 276 * 16;
#X obj 401 231 / 4;
#X obj 626 570 hip~ 120;
#X obj 574 570 hip~ 120;
#X obj 531 -1 + 210;
#X obj 1097 316 bng 15 250 50 0 empty empty empty 17 7 0 10 -262144
-1 -1;
#X obj 1112 316 bng 15 250 50 0 empty empty empty 17 7 0 10 -262144
-1 -1;
#X obj 1127 316 bng 15 250 50 0 empty empty empty 17 7 0 10 -262144
-1 -1;
#X obj 1142 316 bng 15 250 50 0 empty empty empty 17 7 0 10 -262144
-1 -1;
#X obj 1157 316 bng 15 250 50 0 empty empty empty 17 7 0 10 -262144
-1 -1;
#X obj 1172 316 bng 15 250 50 0 empty empty empty 17 7 0 10 -262144
-1 -1;
#X obj 1187 316 bng 15 250 50 0 empty empty empty 17 7 0 10 -262144
-1 -1;
#X obj 1202 316 bng 15 250 50 0 empty empty empty 17 7 0 10 -262144
-1 -1;
#X obj 991 226 sel 113 114 115 116 117 118 119 120 121 122;
#X obj 574 555 vcf~ 608;
#X obj 626 553 vcf~ 608;
#X floatatom 678 569 5 0 0 1 hpf_cutoff - -;
#N canvas 0 0 450 300 bd 0;
#X obj 81 180 t b b;
#X obj 81 163 spigot;
#X msg 81 197 1;
#X obj 139 210 readsf~;
#X obj 105 118 tgl 15 0 empty empty bass_drum_i/o 17 7 2 10 -262144
-1 -1 1 1;
#X obj 133 234 *~ 0.45;
#X msg 252 185 open bassdrum1.wav;
#X obj 48 68 inlet;
#X obj 134 260 outlet~;
#X obj 233 137 spigot;
#X obj 299 155 spigot;
#X obj 106 139 bng 15 250 50 0 empty empty bd1 17 7 0 10 -262144 -1
-1;
#X obj 148 140 bng 15 250 50 0 empty empty bd2 17 7 0 10 -262144 -1
-1;
#X msg 253 66 0;
#X msg 345 94 0;
#X msg 377 96 1;
#X msg 292 68 1;
#X msg 238 234 open bassdrum2.wav;
#X connect 0 0 2 0;
#X connect 0 1 10 0;
#X connect 0 1 9 0;
#X connect 1 0 0 0;
#X connect 2 0 3 0;
#X connect 3 0 5 0;
#X connect 4 0 1 1;
#X connect 5 0 8 0;
#X connect 6 0 3 0;
#X connect 7 0 1 0;
#X connect 9 0 17 0;
#X connect 10 0 6 0;
#X connect 11 0 13 0;
#X connect 11 0 16 0;
#X connect 12 0 14 0;
#X connect 12 0 15 0;
#X connect 13 0 9 1;
#X connect 14 0 10 1;
#X connect 15 0 9 1;
#X connect 16 0 10 1;
#X connect 17 0 3 0;
#X coords 0 -1 1 1 85 60 1 100 100;
#X restore 797 257 pd bd;
#X obj 767 103 metro 127;
#X msg 97 -66 4;
#X msg 28 -48 7;
#X msg 22 -15 9;
#X msg 68 -65 8;
#X obj 313 75 + 111;
#X msg 399 29 67;
#X msg 249 29 57;
#X msg 280 33 68;
#X msg 341 31 89;
#X msg 314 31 29;
#X msg 188 31 31;
#X msg 218 31 42;
#N canvas 52 152 450 300 bd 1;
#X obj 81 180 t b b;
#X obj 81 163 spigot;
#X msg 81 197 1;
#X obj 142 212 readsf~;
#X obj 105 118 tgl 15 0 empty empty bass_drum_i/o 17 7 2 10 -262144
-1 -1 1 1;
#X obj 133 234 *~ 0.45;
#X obj 48 68 inlet;
#X obj 134 260 outlet~;
#X obj 233 137 spigot;
#X obj 299 155 spigot;
#X obj 106 139 bng 15 250 50 0 empty empty bd1 17 7 0 10 -262144 -1
-1;
#X obj 148 140 bng 15 250 50 0 empty empty bd2 17 7 0 10 -262144 -1
-1;
#X msg 251 78 0;
#X msg 345 94 0;
#X msg 377 96 1;
#X msg 304 78 1;
#X obj 205 23 inlet;
#X obj 268 13 f;
#X obj 325 18 + 1;
#X obj 250 43 mod 2;
#X msg 252 185 open kprkick.wav;
#X obj 305 46 sel 0 1;
#X msg 240 234 open kprclaps.wav;
#X connect 0 0 2 0;
#X connect 0 1 9 0;
#X connect 0 1 8 0;
#X connect 1 0 0 0;
#X connect 2 0 3 0;
#X connect 3 0 5 0;
#X connect 4 0 1 1;
#X connect 5 0 7 0;
#X connect 6 0 1 0;
#X connect 8 0 22 0;
#X connect 9 0 20 0;
#X connect 10 0 12 0;
#X connect 10 0 15 0;
#X connect 11 0 13 0;
#X connect 11 0 14 0;
#X connect 12 0 8 1;
#X connect 13 0 9 1;
#X connect 14 0 8 1;
#X connect 15 0 9 1;
#X connect 16 0 17 0;
#X connect 16 0 18 0;
#X connect 17 0 19 0;
#X connect 17 0 18 0;
#X connect 18 0 17 1;
#X connect 19 0 21 0;
#X connect 20 0 3 0;
#X connect 21 0 12 0;
#X connect 21 0 15 0;
#X connect 21 1 13 0;
#X connect 21 1 14 0;
#X connect 22 0 3 0;
#X coords 0 -1 1 1 85 60 1 100 100;
#X restore 802 182 pd bd;
#X msg 22 132 16;
#X msg 46 141 34;
#X msg 90 136 88;
#X msg 126 125 34;
#X msg 225 131 24;
#X msg 188 133 37;
#X msg 254 137 75;
#X msg 160 123 13;
#X msg 807 399 open out120.wav;
#X connect 0 0 3 0;
#X connect 0 1 3 1;
#X connect 1 0 3 0;
#X connect 2 0 3 0;
#X connect 4 0 23 0;
#X connect 5 0 6 1;
#X connect 6 0 95 0;
#X connect 7 0 24 0;
#X connect 7 0 91 0;
#X connect 8 0 20 0;
#X connect 8 0 30 0;
#X connect 9 0 11 0;
#X connect 9 0 15 0;
#X connect 10 0 80 0;
#X connect 10 0 90 0;
#X connect 10 0 96 0;
#X connect 11 0 8 0;
#X connect 11 0 16 0;
#X connect 11 0 30 0;
#X connect 11 0 40 0;
#X connect 11 0 109 0;
#X connect 11 0 108 0;
#X connect 12 0 97 0;
#X connect 13 0 14 0;
#X connect 13 0 17 0;
#X connect 14 0 13 1;
#X connect 15 0 13 0;
#X connect 15 0 14 0;
#X connect 16 0 88 0;
#X connect 17 0 103 0;
#X connect 18 0 17 1;
#X connect 19 0 17 1;
#X connect 20 0 104 0;
#X connect 21 0 20 1;
#X connect 22 0 17 1;
#X connect 23 0 62 0;
#X connect 24 0 57 0;
#X connect 25 0 20 1;
#X connect 26 0 54 1;
#X connect 26 0 95 1;
#X connect 27 0 17 1;
#X connect 28 0 17 1;
#X connect 29 0 5 0;
#X connect 29 0 38 0;
#X connect 30 0 8 1;
#X connect 31 0 66 0;
#X connect 31 0 106 0;
#X connect 31 0 110 0;
#X connect 33 0 20 1;
#X connect 34 0 20 1;
#X connect 35 0 124 2;
#X connect 35 0 125 2;
#X connect 36 0 17 1;
#X connect 37 0 20 1;
#X connect 38 0 39 1;
#X connect 39 0 54 0;
#X connect 40 0 89 0;
#X connect 41 0 81 0;
#X connect 41 0 82 0;
#X connect 42 0 30 1;
#X connect 43 0 30 1;
#X connect 44 0 39 0;
#X connect 45 0 31 0;
#X connect 46 0 14 1;
#X connect 47 0 14 1;
#X connect 49 0 75 1;
#X connect 50 0 49 0;
#X connect 51 0 17 1;
#X connect 52 0 66 1;
#X connect 52 0 111 0;
#X connect 53 0 74 0;
#X connect 54 0 124 0;
#X connect 56 0 48 0;
#X connect 57 0 58 0;
#X connect 58 0 56 0;
#X connect 59 0 76 0;
#X connect 60 0 78 0;
#X connect 61 0 44 0;
#X connect 62 0 63 0;
#X connect 63 0 61 0;
#X connect 64 0 79 0;
#X connect 65 0 85 0;
#X connect 66 0 80 1;
#X connect 67 0 77 0;
#X connect 68 0 86 0;
#X connect 69 0 68 0;
#X connect 70 0 65 0;
#X connect 71 0 10 0;
#X connect 72 0 12 0;
#X connect 73 0 67 0;
#X connect 74 0 45 0;
#X connect 75 0 6 0;
#X connect 76 0 60 0;
#X connect 77 0 64 0;
#X connect 78 0 57 1;
#X connect 79 0 62 1;
#X connect 80 0 124 1;
#X connect 80 0 125 1;
#X connect 81 0 16 1;
#X connect 82 0 40 1;
#X connect 83 0 87 0;
#X connect 83 0 93 0;
#X connect 83 0 94 0;
#X connect 84 0 59 0;
#X connect 85 0 84 0;
#X connect 86 0 73 0;
#X connect 87 0 71 1;
#X connect 87 0 72 1;
#X connect 88 0 5 0;
#X connect 89 0 38 0;
#X connect 90 0 69 0;
#X connect 90 0 70 0;
#X connect 90 0 92 1;
#X connect 91 0 92 0;
#X connect 92 0 52 0;
#X connect 94 0 114 0;
#X connect 95 0 125 0;
#X connect 96 0 4 0;
#X connect 97 0 32 0;
#X connect 97 0 7 0;
#X connect 98 0 123 0;
#X connect 103 0 139 0;
#X connect 103 1 140 0;
#X connect 103 1 141 1;
#X connect 103 2 135 0;
#X connect 103 3 136 0;
#X connect 103 4 138 0;
#X connect 103 5 137 0;
#X connect 103 6 107 0;
#X connect 103 7 134 0;
#X connect 104 0 142 0;
#X connect 104 0 127 0;
#X connect 104 0 29 0;
#X connect 104 1 143 0;
#X connect 104 2 144 0;
#X connect 104 2 141 0;
#X connect 104 3 145 0;
#X connect 104 4 149 0;
#X connect 104 5 147 0;
#X connect 104 6 146 0;
#X connect 104 7 148 0;
#X connect 105 0 11 1;
#X connect 105 0 133 0;
#X connect 106 0 105 1;
#X connect 107 0 105 0;
#X connect 108 0 5 0;
#X connect 109 0 38 0;
#X connect 110 0 87 1;
#X connect 111 0 110 1;
#X connect 112 0 0 1;
#X connect 113 0 0 0;
#X connect 114 0 41 0;
#X connect 123 0 99 0;
#X connect 123 1 100 0;
#X connect 123 2 101 0;
#X connect 123 3 102 0;
#X connect 123 4 115 0;
#X connect 123 5 116 0;
#X connect 123 6 117 0;
#X connect 123 7 118 0;
#X connect 123 8 119 0;
#X connect 123 9 120 0;
#X connect 124 0 113 0;
#X connect 125 0 112 0;
#X connect 126 0 112 1;
#X connect 126 0 113 1;
#X connect 127 0 0 1;
#X connect 127 0 0 0;
#X connect 129 0 20 1;
#X connect 130 0 20 1;
#X connect 131 0 20 1;
#X connect 132 0 20 1;
#X connect 133 0 15 1;
#X connect 133 0 53 0;
#X connect 134 0 105 0;
#X connect 135 0 105 0;
#X connect 136 0 105 0;
#X connect 137 0 105 0;
#X connect 138 0 105 0;
#X connect 139 0 105 0;
#X connect 140 0 105 0;
#X connect 141 0 0 0;
#X connect 141 0 0 1;
#X connect 142 0 71 0;
#X connect 142 0 72 0;
#X connect 142 0 83 0;
#X connect 143 0 71 0;
#X connect 143 0 72 0;
#X connect 143 0 83 0;
#X connect 144 0 71 0;
#X connect 144 0 72 0;
#X connect 144 0 83 0;
#X connect 145 0 71 0;
#X connect 145 0 72 0;
#X connect 145 0 83 0;
#X connect 146 0 71 0;
#X connect 147 0 71 0;
#X connect 147 0 72 0;
#X connect 147 0 83 0;
#X connect 148 0 71 0;
#X connect 149 0 71 0;
#X connect 149 0 72 0;
#X connect 149 0 83 0;
#X connect 150 0 3 0;
